<?xml version="1.0" encoding="utf-8"?>
<!-- Generator: Adobe Illustrator 18.0.0, SVG Export Plug-In . SVG Version: 6.00 Build 0)  -->
<!DOCTYPE svg PUBLIC "-//W3C//DTD SVG 1.1//EN" "http://www.w3.org/Graphics/SVG/1.1/DTD/svg11.dtd">
<svg version="1.1" id="Ebene_1" xmlns="http://www.w3.org/2000/svg" xmlns:xlink="http://www.w3.org/1999/xlink" x="0px" y="0px"
	 viewBox="0 0 64 64" enable-background="new 0 0 64 64" xml:space="preserve">
<path fill="#0EA6C9" d="M53.8,28.2c-1.5-3,0.7-4.8,0.8-6.3c0.7-7.2-1.7-11.6-5-15C44.2,1,37.3,0,32.8,0C21.2,0.1,16.5,3.8,13,7.8
	c-7.4,8.3-5.8,15.6-5.8,15.6c0.2,4.3,6.1,12.2,6.1,12.2c4.7,6.9,2.4,12.1,2.4,12.1C25.2,50,33,64,33,64c0.3-2.1,4.9-10.9,4.9-10.9
	c1.9-2.4,5.1-1.6,6.9-1.4c5,0.6,6.2-0.9,6.2-0.9c1.1-0.7,0.6-3.5,0.6-3.5c-0.4-1.4,0.3-2.1,0.7-2.7c1.1-1.5,0.5-2.3,0.5-2.3
	c-0.3-0.4-0.1-0.7-0.1-0.7c1.2-0.4,1.3-1.1,1.3-1.1l0-2.2c-0.2-1.5,0.5-1.6,0.5-1.6C57.1,36.8,57,35,57,35
	C57.1,34.1,53.8,28.2,53.8,28.2L53.8,28.2z M18,27.2c-0.3-0.6-0.4-1.2-0.1-2.1c0.2-0.6,0.3-1.1,0.1-1.5c-0.2-0.4-0.6-0.5-1.1-0.3
	c-0.4,0.2-0.8,0.5-1,0.8L15,23.1c0.3-0.4,0.9-1,1.7-1.3c1.5-0.7,2.5-0.2,3,0.8c0.4,0.9,0.1,1.7-0.1,2.4c-0.2,0.7-0.2,1.2,0,1.7
	l0.1,0.2l-1.5,0.7L18,27.2z M20,29.7c-0.6,0.3-1.2,0-1.5-0.6c-0.3-0.6,0-1.2,0.5-1.5c0.6-0.3,1.2,0,1.5,0.6
	C20.8,28.8,20.6,29.5,20,29.7L20,29.7z M32.8,34.8c-2,0.5-3.6-0.7-4.1-2.6c-0.5-2,0.6-3.7,2.5-4.2c2-0.5,3.6,0.6,4.1,2.6
	C35.8,32.5,34.8,34.3,32.8,34.8L32.8,34.8z M33.9,19.9c-1,1.9-1.2,3.4-0.8,5.1l0.2,0.7l-4.9,1.2l-0.3-1c-0.6-1.9-0.4-4,0.8-6.4
	c0.8-1.7,1.5-3.1,1.2-4.4c-0.3-1.3-1.4-1.9-3.2-1.6c-1.2,0.3-2.6,1.1-3.4,2l-2.2-3.7c1.1-1.1,3.2-2.4,5.8-3c4.9-1.2,7.7,1,8.5,4.1
	C36.2,15.7,35,18,33.9,19.9L33.9,19.9z M43.2,21.9c-0.2,1-1.1,1.6-2.1,1.4c-1-0.2-1.5-1.1-1.3-2.1c0.2-1,1.1-1.6,2.1-1.4
	C42.9,20,43.4,20.9,43.2,21.9L43.2,21.9z M47.3,13.8C47,15.3,45.9,16,45,16.7c-0.9,0.6-1.3,1.3-1.5,2.2l-0.1,0.3l-2.5-0.6l0.1-0.5
	c0.2-1,0.7-1.9,1.8-2.8c0.8-0.6,1.4-1.1,1.5-1.7c0.1-0.7-0.2-1.2-1.1-1.5c-0.6-0.1-1.4-0.1-2,0.2L41,10.1c0.8-0.2,2-0.4,3.3-0.1
	C46.8,10.6,47.6,12.2,47.3,13.8L47.3,13.8z M47.3,13.8"/>
</svg>
